<svg width="269" height="300" fill="none" xmlns="http://www.w3.org/2000/svg"><path d="M261.005 49.455C232.8 18.37 192.833.28 150.02.28 67.27.281.187 67.364.187 150.114S67.269 299.947 150.02 299.947c14.922 0 27.019-12.097 27.019-27.019 0-14.773-11.856-26.777-26.572-27.016l-.447-.003c-52.906 0-95.795-42.889-95.795-95.795s42.889-95.795 95.795-95.795c27.13 0 52.379 11.303 70.411 30.842l.556.607c10.027 11.05 27.115 11.88 38.166 1.852 11.05-10.027 11.88-27.115 1.852-38.165z" fill="url(#paint0_angular)"/><defs><radialGradient id="paint0_angular" cx="0" cy="0" r="1" gradientUnits="userSpaceOnUse" gradientTransform="matrix(-147 0 0 -164.784 147 150)"><stop offset=".115" stop-color="#11A8FD"/><stop offset=".745" stop-color="#005696"/></radialGradient></defs></svg>