<svg width="268" height="300" fill="none" xmlns="http://www.w3.org/2000/svg"><g opacity=".175" filter="url(#filter0_i)"><path fill-rule="evenodd" clip-rule="evenodd" d="M7.128 49.455C35.334 18.37 75.3.28 118.114.28c82.75 0 149.832 67.083 149.832 149.833s-67.082 149.833-149.832 149.833c-14.922 0-27.02-12.097-27.02-27.019 0-14.773 11.857-26.777 26.573-27.016l.447-.003c52.906 0 95.794-42.889 95.794-95.795s-42.888-95.795-95.794-95.795c-27.13 0-52.38 11.303-70.412 30.842l-.555.607C37.119 96.818 20.032 97.648 8.98 87.62-2.07 77.593-2.9 60.505 7.128 49.455z" fill="#1F2124"/></g><defs><filter id="filter0_i" x=".118" y=".281" width="267.828" height="300.665" filterUnits="userSpaceOnUse" color-interpolation-filters="sRGB"><feFlood flood-opacity="0" result="BackgroundImageFix"/><feBlend in="SourceGraphic" in2="BackgroundImageFix" result="shape"/><feColorMatrix in="SourceAlpha" values="0 0 0 0 0 0 0 0 0 0 0 0 0 0 0 0 0 0 127 0" result="hardAlpha"/><feOffset dy="1"/><feGaussianBlur stdDeviation="1.5"/><feComposite in2="hardAlpha" operator="arithmetic" k2="-1" k3="1"/><feColorMatrix values="0 0 0 0 0.665641 0 0 0 0 0.733296 0 0 0 0 0.869452 0 0 0 0.542887 0"/><feBlend in2="shape" result="effect1_innerShadow"/></filter></defs></svg>