<svg viewBox="0 0 269 300" xmlns="http://www.w3.org/2000/svg" xmlns:xlink="http://www.w3.org/1999/xlink"><style>:root&gt;svg{display:none}:root&gt;svg:target{display:block}</style><svg viewBox="0 0 76 76" id="Rectangle_82" xmlns="http://www.w3.org/2000/svg"><rect x="75" y="75" width="74" height="74" rx="37" transform="rotate(-180 75 75)"/><defs><linearGradient id="apaint0_linear" x1="137.375" y1="141.125" x2="90.5" y2="83.938" gradientUnits="userSpaceOnUse"><stop stop-color="#005EA3"/><stop offset="1" stop-color="#11A8FD"/></linearGradient></defs></svg><svg viewBox="0 0 17 17" id="admin" xmlns="http://www.w3.org/2000/svg"><path d="M15.001 16v-1.667A3.333 3.333 0 0011.668 11H5.001a3.333 3.333 0 00-3.333 3.333V16m6.669-8.333a3.333 3.333 0 100-6.667 3.333 3.333 0 000 6.667z"/></svg><svg viewBox="0 0 66 66" id="auto" xmlns="http://www.w3.org/2000/svg"><path d="M33.926 34.959a1 1 0 00.94-1.344l-1.457-3.979a11.597 11.597 0 01-.298-.84c-.09-.284-.52-.274-.609.01-.103.325-.203.609-.299.852l-1.445 3.957a1 1 0 00.939 1.343h2.23zm6.15 4.675a1 1 0 01-.93 1.366h-.835c-.258 0-.468-.063-.63-.188a1.249 1.249 0 01-.366-.487l-.954-2.608a1 1 0 00-.94-.656h-5.23a1 1 0 00-.939.656l-.955 2.608c-.059.17-.173.325-.343.465-.17.14-.38.21-.63.21h-.856a1 1 0 01-.93-1.366l5.509-14a1 1 0 01.93-.634h1.67a1 1 0 01.93.634l5.5 14z"/></svg><svg viewBox="0 0 20 22" id="cool" xmlns="http://www.w3.org/2000/svg"><path d="M13.714 12.207L11.645 11l2.069-1.207a.585.585 0 00.21-.791.563.563 0 00-.776-.215L11.069 10V7.58c0-.32-.255-.58-.569-.58-.314 0-.57.26-.57.58V10L7.853 8.787a.563.563 0 00-.777.215.586.586 0 00.211.79L9.356 11l-2.07 1.207a.586.586 0 00-.21.791.564.564 0 00.776.215L9.931 12v2.42c0 .32.255.58.569.58.314 0 .57-.26.57-.58V12l2.078 1.213c.273.16.62.063.777-.215a.586.586 0 00-.211-.79z"/><path d="M17.434 4.432L12.43 1.565a4.308 4.308 0 00-4.267 0L3.16 4.432A4.304 4.304 0 001 8.158v5.684c0 1.535.827 2.963 2.16 3.726l5.003 2.867a4.308 4.308 0 004.267 0l5.004-2.867a4.304 4.304 0 002.16-3.726V8.158a4.304 4.304 0 00-2.16-3.726zm.597 9.41c0 .976-.526 1.885-1.373 2.37l-5.004 2.866a2.74 2.74 0 01-2.714 0l-5.004-2.866a2.738 2.738 0 01-1.373-2.37V8.158c0-.977.526-1.885 1.373-2.37L8.94 2.922a2.74 2.74 0 012.714 0l5.004 2.866a2.738 2.738 0 011.373 2.37v5.684z"/></svg><svg viewBox="0 0 18 19" id="dry" xmlns="http://www.w3.org/2000/svg"><path d="M15.805 10.29c-.45-.388-.846-.726-1.323-.972-.47-.242-1.026-.4-1.794-.4-.769 0-1.326.158-1.795.4-.477.246-.872.584-1.323.971l-.004.003c-.954.818-2.086 1.79-4.254 1.79-2.167 0-3.3-.972-4.253-1.79l-.004-.003a.875.875 0 01-.094-1.234l14.844 1.234zm0 0a.875.875 0 001.234-.095m-1.234.094l1.234-.094m0 0a.875.875 0 00-.094-1.234l-.004-.003c-.954-.818-2.086-1.79-4.253-1.79-2.168 0-3.3.972-4.254 1.79l-.004.003c-.45.387-.846.725-1.323.97-.47.243-1.026.4-1.795.4-.768 0-1.325-.157-1.794-.4-.477-.245-.872-.583-1.323-.97m14.844 1.234L2.195 8.96m0 0a.875.875 0 00-1.234.094l1.234-.094zM1.059 3.874l-.004-.003.004.003zm0 0c.954.818 2.086 1.789 4.253 1.789M1.06 3.873l4.253 1.79m0 0c2.168 0 3.3-.971 4.254-1.79m-4.254 1.79l4.254-1.79m0 0l.004-.002m-.004.003l.004-.003m0 0c.45-.387.846-.725 1.323-.971m-1.323.97l1.323-.97m0 0c.47-.243 1.026-.4 1.794-.4m-1.794.4l1.794-.4m0 0c.769 0 1.325.157 1.795.4m-1.794-.4l1.794.4m0 0c.477.246.872.584 1.323.97m-1.323-.97l1.323.97m0 0a.875.875 0 001.234-.094l-1.234.095zM2.195 2.543c.45.387.846.725 1.323.971.47.243 1.026.4 1.794.4.769 0 1.325-.157 1.795-.4.477-.246.872-.584 1.323-.97l.004-.004C9.388 1.721 10.52.75 12.688.75c2.167 0 3.3.971 4.253 1.79l.004.002a.876.876 0 01.094 1.234l-15.984.095a.875.875 0 111.14-1.329zm0 0l-.163.19.163-.19zm.007 12.843l-.007-.006a.875.875 0 00-1.234.095.875.875 0 00.094 1.234l.004.003c.954.818 2.086 1.789 4.253 1.789 2.168 0 3.3-.971 4.254-1.79l.004-.002c.45-.387.846-.725 1.323-.971.47-.243 1.026-.4 1.794-.4.769 0 1.326.157 1.795.4.477.246.872.584 1.323.97a.875.875 0 001.234-.094.875.875 0 00-.094-1.234l-.004-.003c-.954-.818-2.086-1.79-4.254-1.79-2.167 0-3.3.972-4.253 1.79l-.004.003c-.45.387-.846.725-1.323.971-.47.243-1.026.4-1.795.4-.768 0-1.325-.157-1.794-.4-.474-.245-.868-.58-1.316-.965z"/></svg><svg viewBox="0 0 18 11" id="menu" xmlns="http://www.w3.org/2000/svg"><rect x="1" y="1" width="16" height="2" rx="1"/><rect x="1" y="8" width="8" height="2" rx="1"/></svg><svg viewBox="0 0 268 300" id="path-black" xmlns="http://www.w3.org/2000/svg"><g opacity=".175" filter="url(#gfilter0_i)"><path fill-rule="evenodd" clip-rule="evenodd" d="M7.128 49.455C35.334 18.37 75.3.28 118.114.28c82.75 0 149.832 67.083 149.832 149.833s-67.082 149.833-149.832 149.833c-14.922 0-27.02-12.097-27.02-27.019 0-14.773 11.857-26.777 26.573-27.016l.447-.003c52.906 0 95.794-42.889 95.794-95.795s-42.888-95.795-95.794-95.795c-27.13 0-52.38 11.303-70.412 30.842l-.555.607C37.119 96.818 20.032 97.648 8.98 87.62-2.07 77.593-2.9 60.505 7.128 49.455z"/></g><defs><filter id="gfilter0_i" x=".118" y=".281" width="267.828" height="300.665" filterUnits="userSpaceOnUse" color-interpolation-filters="sRGB"><feFlood flood-opacity="0" result="BackgroundImageFix"/><feBlend in="SourceGraphic" in2="BackgroundImageFix" result="shape"/><feColorMatrix in="SourceAlpha" values="0 0 0 0 0 0 0 0 0 0 0 0 0 0 0 0 0 0 127 0" result="hardAlpha"/><feOffset dy="1"/><feGaussianBlur stdDeviation="1.5"/><feComposite in2="hardAlpha" operator="arithmetic" k2="-1" k3="1"/><feColorMatrix values="0 0 0 0 0.665641 0 0 0 0 0.733296 0 0 0 0 0.869452 0 0 0 0.542887 0"/><feBlend in2="shape" result="effect1_innerShadow"/></filter></defs></svg><svg viewBox="0 0 269 300" id="path-blue" xmlns="http://www.w3.org/2000/svg"><path d="M261.005 49.455C232.8 18.37 192.833.28 150.02.28 67.27.281.187 67.364.187 150.114S67.269 299.947 150.02 299.947c14.922 0 27.019-12.097 27.019-27.019 0-14.773-11.856-26.777-26.572-27.016l-.447-.003c-52.906 0-95.795-42.889-95.795-95.795s42.889-95.795 95.795-95.795c27.13 0 52.379 11.303 70.411 30.842l.556.607c10.027 11.05 27.115 11.88 38.166 1.852 11.05-10.027 11.88-27.115 1.852-38.165z"/><defs><radialGradient id="hpaint0_angular" cx="0" cy="0" r="1" gradientUnits="userSpaceOnUse" gradientTransform="matrix(-147 0 0 -164.784 147 150)"><stop offset=".115" stop-color="#11A8FD"/><stop offset=".745" stop-color="#005696"/></radialGradient></defs></svg><svg viewBox="0 0 18 20" id="power" xmlns="http://www.w3.org/2000/svg"><path d="M8.79 0a1.76 1.76 0 00-1.76 1.758v7.07c0 .97.789 1.759 1.758 1.759a1.76 1.76 0 001.758-1.758V1.758A1.76 1.76 0 008.79 0z"/><path d="M14.672 4.647a1.766 1.766 0 00-2.462.073c-.65.668-.7 1.8.123 2.55a5.28 5.28 0 011.654 4.802c-.425 2.464-2.567 4.405-5.197 4.41-2.695.007-4.759-1.982-5.184-4.32a5.288 5.288 0 011.64-4.89c.82-.748.777-1.885.126-2.554a1.776 1.776 0 00-2.477-.06A8.8 8.8 0 00.05 12.101C.527 16.562 4.293 20 8.81 20c4.466 0 8.123-3.446 8.687-7.607a8.826 8.826 0 00-2.825-7.746z"/></svg><svg viewBox="0 0 19 23" id="program" xmlns="http://www.w3.org/2000/svg"><path d="M7.25 2.563h4.688a.781.781 0 100-1.563H7.25a.781.781 0 100 1.563zm2.344 2.25A8.59 8.59 0 001 13.405 8.59 8.59 0 009.594 22a8.59 8.59 0 008.594-8.594 8.59 8.59 0 00-8.594-8.594zm0 15.625a7.04 7.04 0 01-7.031-7.032 7.04 7.04 0 017.03-7.031 7.04 7.04 0 017.032 7.031 7.04 7.04 0 01-7.031 7.031z"/><path d="M9.594 9.719a.781.781 0 00-.781.781v3.906a.781.781 0 101.562 0V10.5a.781.781 0 00-.781-.781z"/></svg></svg>